solid f5_continuous_bed
  facet normal 0 0 0
    outer loop
      vertex -1.1 -0.72 0
      vertex 3.55 -0.72 0
      vertex 3.55 0.72 0
    endloop
  endfacet
  facet normal 0 0 0
    outer loop
      vertex -1.1 -0.72 0
      vertex 3.55 0.72 0
      vertex -1.1 0.72 0
    endloop
  endfacet
  facet normal 0 0 0
    outer loop
      vertex 3.55 -0.72 -0.24
      vertex -1.1 -0.72 -0.24
      vertex -1.1 0.72 -0.24
    endloop
  endfacet
  facet normal 0 0 0
    outer loop
      vertex 3.55 -0.72 -0.24
      vertex -1.1 0.72 -0.24
      vertex 3.55 0.72 -0.24
    endloop
  endfacet
  facet normal 0 0 0
    outer loop
      vertex -1.1 -0.72 -0.24
      vertex 3.55 -0.72 -0.24
      vertex 3.55 -0.72 0
    endloop
  endfacet
  facet normal 0 0 0
    outer loop
      vertex -1.1 -0.72 -0.24
      vertex 3.55 -0.72 0
      vertex -1.1 -0.72 0
    endloop
  endfacet
  facet normal 0 0 0
    outer loop
      vertex 3.55 0.72 -0.24
      vertex -1.1 0.72 -0.24
      vertex -1.1 0.72 0
    endloop
  endfacet
  facet normal 0 0 0
    outer loop
      vertex 3.55 0.72 -0.24
      vertex -1.1 0.72 0
      vertex 3.55 0.72 0
    endloop
  endfacet
  facet normal 0 0 0
    outer loop
      vertex 3.55 -0.72 0
      vertex 5.15 -0.72 0.448
      vertex 5.15 0.72 0.448
    endloop
  endfacet
  facet normal 0 0 0
    outer loop
      vertex 3.55 -0.72 0
      vertex 5.15 0.72 0.448
      vertex 3.55 0.72 0
    endloop
  endfacet
  facet normal 0 0 0
    outer loop
      vertex 5.15 -0.72 -0.24
      vertex 3.55 -0.72 -0.24
      vertex 3.55 0.72 -0.24
    endloop
  endfacet
  facet normal 0 0 0
    outer loop
      vertex 5.15 -0.72 -0.24
      vertex 3.55 0.72 -0.24
      vertex 5.15 0.72 -0.24
    endloop
  endfacet
  facet normal 0 0 0
    outer loop
      vertex 3.55 -0.72 -0.24
      vertex 5.15 -0.72 -0.24
      vertex 5.15 -0.72 0.448
    endloop
  endfacet
  facet normal 0 0 0
    outer loop
      vertex 3.55 -0.72 -0.24
      vertex 5.15 -0.72 0.448
      vertex 3.55 -0.72 0
    endloop
  endfacet
  facet normal 0 0 0
    outer loop
      vertex 5.15 0.72 -0.24
      vertex 3.55 0.72 -0.24
      vertex 3.55 0.72 0
    endloop
  endfacet
  facet normal 0 0 0
    outer loop
      vertex 5.15 0.72 -0.24
      vertex 3.55 0.72 0
      vertex 5.15 0.72 0.448
    endloop
  endfacet
  facet normal 0 0 0
    outer loop
      vertex 5.15 -0.72 0.448
      vertex 6.55 -0.72 0.84
      vertex 6.55 0.72 0.84
    endloop
  endfacet
  facet normal 0 0 0
    outer loop
      vertex 5.15 -0.72 0.448
      vertex 6.55 0.72 0.84
      vertex 5.15 0.72 0.448
    endloop
  endfacet
  facet normal 0 0 0
    outer loop
      vertex 6.55 -0.72 -0.24
      vertex 5.15 -0.72 -0.24
      vertex 5.15 0.72 -0.24
    endloop
  endfacet
  facet normal 0 0 0
    outer loop
      vertex 6.55 -0.72 -0.24
      vertex 5.15 0.72 -0.24
      vertex 6.55 0.72 -0.24
    endloop
  endfacet
  facet normal 0 0 0
    outer loop
      vertex 5.15 -0.72 -0.24
      vertex 6.55 -0.72 -0.24
      vertex 6.55 -0.72 0.84
    endloop
  endfacet
  facet normal 0 0 0
    outer loop
      vertex 5.15 -0.72 -0.24
      vertex 6.55 -0.72 0.84
      vertex 5.15 -0.72 0.448
    endloop
  endfacet
  facet normal 0 0 0
    outer loop
      vertex 6.55 0.72 -0.24
      vertex 5.15 0.72 -0.24
      vertex 5.15 0.72 0.448
    endloop
  endfacet
  facet normal 0 0 0
    outer loop
      vertex 6.55 0.72 -0.24
      vertex 5.15 0.72 0.448
      vertex 6.55 0.72 0.84
    endloop
  endfacet
  facet normal 0 0 0
    outer loop
      vertex 6.55 -0.72 0.84
      vertex 7.15 -0.72 0.84
      vertex 7.15 0.72 0.84
    endloop
  endfacet
  facet normal 0 0 0
    outer loop
      vertex 6.55 -0.72 0.84
      vertex 7.15 0.72 0.84
      vertex 6.55 0.72 0.84
    endloop
  endfacet
  facet normal 0 0 0
    outer loop
      vertex 7.15 -0.72 -0.24
      vertex 6.55 -0.72 -0.24
      vertex 6.55 0.72 -0.24
    endloop
  endfacet
  facet normal 0 0 0
    outer loop
      vertex 7.15 -0.72 -0.24
      vertex 6.55 0.72 -0.24
      vertex 7.15 0.72 -0.24
    endloop
  endfacet
  facet normal 0 0 0
    outer loop
      vertex 6.55 -0.72 -0.24
      vertex 7.15 -0.72 -0.24
      vertex 7.15 -0.72 0.84
    endloop
  endfacet
  facet normal 0 0 0
    outer loop
      vertex 6.55 -0.72 -0.24
      vertex 7.15 -0.72 0.84
      vertex 6.55 -0.72 0.84
    endloop
  endfacet
  facet normal 0 0 0
    outer loop
      vertex 7.15 0.72 -0.24
      vertex 6.55 0.72 -0.24
      vertex 6.55 0.72 0.84
    endloop
  endfacet
  facet normal 0 0 0
    outer loop
      vertex 7.15 0.72 -0.24
      vertex 6.55 0.72 0.84
      vertex 7.15 0.72 0.84
    endloop
  endfacet
  facet normal 0 0 0
    outer loop
      vertex 7.15 -0.72 0.84
      vertex 9.45 -0.72 0.37
      vertex 9.45 0.72 0.37
    endloop
  endfacet
  facet normal 0 0 0
    outer loop
      vertex 7.15 -0.72 0.84
      vertex 9.45 0.72 0.37
      vertex 7.15 0.72 0.84
    endloop
  endfacet
  facet normal 0 0 0
    outer loop
      vertex 9.45 -0.72 -0.24
      vertex 7.15 -0.72 -0.24
      vertex 7.15 0.72 -0.24
    endloop
  endfacet
  facet normal 0 0 0
    outer loop
      vertex 9.45 -0.72 -0.24
      vertex 7.15 0.72 -0.24
      vertex 9.45 0.72 -0.24
    endloop
  endfacet
  facet normal 0 0 0
    outer loop
      vertex 7.15 -0.72 -0.24
      vertex 9.45 -0.72 -0.24
      vertex 9.45 -0.72 0.37
    endloop
  endfacet
  facet normal 0 0 0
    outer loop
      vertex 7.15 -0.72 -0.24
      vertex 9.45 -0.72 0.37
      vertex 7.15 -0.72 0.84
    endloop
  endfacet
  facet normal 0 0 0
    outer loop
      vertex 9.45 0.72 -0.24
      vertex 7.15 0.72 -0.24
      vertex 7.15 0.72 0.84
    endloop
  endfacet
  facet normal 0 0 0
    outer loop
      vertex 9.45 0.72 -0.24
      vertex 7.15 0.72 0.84
      vertex 9.45 0.72 0.37
    endloop
  endfacet
  facet normal 0 0 0
    outer loop
      vertex 9.45 -0.72 0.37
      vertex 10.5 -0.72 0.08
      vertex 10.5 0.72 0.08
    endloop
  endfacet
  facet normal 0 0 0
    outer loop
      vertex 9.45 -0.72 0.37
      vertex 10.5 0.72 0.08
      vertex 9.45 0.72 0.37
    endloop
  endfacet
  facet normal 0 0 0
    outer loop
      vertex 10.5 -0.72 -0.24
      vertex 9.45 -0.72 -0.24
      vertex 9.45 0.72 -0.24
    endloop
  endfacet
  facet normal 0 0 0
    outer loop
      vertex 10.5 -0.72 -0.24
      vertex 9.45 0.72 -0.24
      vertex 10.5 0.72 -0.24
    endloop
  endfacet
  facet normal 0 0 0
    outer loop
      vertex 9.45 -0.72 -0.24
      vertex 10.5 -0.72 -0.24
      vertex 10.5 -0.72 0.08
    endloop
  endfacet
  facet normal 0 0 0
    outer loop
      vertex 9.45 -0.72 -0.24
      vertex 10.5 -0.72 0.08
      vertex 9.45 -0.72 0.37
    endloop
  endfacet
  facet normal 0 0 0
    outer loop
      vertex 10.5 0.72 -0.24
      vertex 9.45 0.72 -0.24
      vertex 9.45 0.72 0.37
    endloop
  endfacet
  facet normal 0 0 0
    outer loop
      vertex 10.5 0.72 -0.24
      vertex 9.45 0.72 0.37
      vertex 10.5 0.72 0.08
    endloop
  endfacet
  facet normal 0 0 0
    outer loop
      vertex 10.5 -0.72 0.08
      vertex 10.85 -0.72 0.08
      vertex 10.85 0.72 0.08
    endloop
  endfacet
  facet normal 0 0 0
    outer loop
      vertex 10.5 -0.72 0.08
      vertex 10.85 0.72 0.08
      vertex 10.5 0.72 0.08
    endloop
  endfacet
  facet normal 0 0 0
    outer loop
      vertex 10.85 -0.72 -0.24
      vertex 10.5 -0.72 -0.24
      vertex 10.5 0.72 -0.24
    endloop
  endfacet
  facet normal 0 0 0
    outer loop
      vertex 10.85 -0.72 -0.24
      vertex 10.5 0.72 -0.24
      vertex 10.85 0.72 -0.24
    endloop
  endfacet
  facet normal 0 0 0
    outer loop
      vertex 10.5 -0.72 -0.24
      vertex 10.85 -0.72 -0.24
      vertex 10.85 -0.72 0.08
    endloop
  endfacet
  facet normal 0 0 0
    outer loop
      vertex 10.5 -0.72 -0.24
      vertex 10.85 -0.72 0.08
      vertex 10.5 -0.72 0.08
    endloop
  endfacet
  facet normal 0 0 0
    outer loop
      vertex 10.85 0.72 -0.24
      vertex 10.5 0.72 -0.24
      vertex 10.5 0.72 0.08
    endloop
  endfacet
  facet normal 0 0 0
    outer loop
      vertex 10.85 0.72 -0.24
      vertex 10.5 0.72 0.08
      vertex 10.85 0.72 0.08
    endloop
  endfacet
  facet normal 0 0 0
    outer loop
      vertex -1.1 -0.72 -0.24
      vertex -1.1 0.72 -0.24
      vertex -1.1 0.72 0
    endloop
  endfacet
  facet normal 0 0 0
    outer loop
      vertex -1.1 -0.72 -0.24
      vertex -1.1 0.72 0
      vertex -1.1 -0.72 0
    endloop
  endfacet
  facet normal 0 0 0
    outer loop
      vertex 10.85 -0.72 -0.24
      vertex 10.85 -0.72 0.08
      vertex 10.85 0.72 0.08
    endloop
  endfacet
  facet normal 0 0 0
    outer loop
      vertex 10.85 -0.72 -0.24
      vertex 10.85 0.72 0.08
      vertex 10.85 0.72 -0.24
    endloop
  endfacet
endsolid f5_continuous_bed
